PathFileType	4	(X/Y/Z)	C:/Users/beibeiliu/ov580/test_trc/User3\sequence.36_training_dense_right.trc
DataRate	CameraRate	NumFrames	NumMarkers	Units	OrigDataRate	OrigDataStartFrame	OrigNumFrames
120	120	20	19	mm	120	221	252
Frame#	Time	ThumbCMC			ThumbMCP			ThumbIP			ThumbTip			IndexMCP			IndexPIP			IndexTip			MiddleMCP			MiddlePIP			MiddleTip			RingMCP			RingPIP			RingTip			PinkyMCP			PinkyPIP			PinkyTip			BackHand1			BackHand2			BackHand3	
		X0	Y0	Z0	X1	Y1	Z1	X2	Y2	Z2	X3	Y3	Z3	X4	Y4	Z4	X5	Y5	Z5	X6	Y6	Z6	X7	Y7	Z7	X8	Y8	Z8	X9	Y9	Z9	X10	Y10	Z10	X11	Y11	Z11	X12	Y12	Z12	X13	Y13	Z13	X14	Y14	Z14	X15	Y15	Z15	X16	Y16	Z16	X17	Y17	Z17	X18	Y18	Z18	
220	1.83333	61.7926	53.876	-20.2884	49.447	51.546	-49.8035	33.8553	51.6679	-74.6924	24.7614	51.0515	-95.4287	92.1444	80.3103	-90.7492	91.3492	85.2253	-117.04	92.3228	91.677	-138.834	125.043	71.5864	-92.7653	126.881	74.3176	-120.929	133.785	72.804	-148.241	131.856	46.8279	-85.0974	130.921	29.3755	-111.307	116.622	7.01477	-126.05	139.775	29.72	-75.0471	136.906	9.88056	-94.6884	121.049	-4.42299	-103.988	132.23	56.7661	-31.1267	123.862	50.9214	-0.37414	99.0635	68.7585	-23.8654	
221	1.84167	58.482	43.1982	-29.7949	42.5265	36.5919	-53.6707	30.8705	33.0604	-78.0614	19.3962	29.6621	-100.291	89.8235	61.6775	-101.044	87.9181	63.3075	-123.264	84.9353	69.7729	-147.419	120.331	53.3773	-99.0919	122.435	54.2756	-129.7	130.911	52.2847	-156.489	129.78	29.241	-90.1372	129.177	8.46278	-115.28	116.697	-13.3023	-126.886	142.84	12.8289	-75.4369	136.297	-3.47236	-92.2274	125.044	-26.9368	-98.562	126.583	50.687	-36.9842	118.765	47.8113	-7.98325	94.5149	61.1756	-29.8759	
222	1.85	56.4425	33.2297	-34.6242	43.7466	24.3982	-55.555	26.538	20.0244	-84.0468	16.2563	12.6997	-98.7321	84.925	47.9138	-105.954	84.5959	49.0232	-130.902	81.3757	52.3564	-151.235	115.224	41.887	-103.088	120.153	39.6562	-132.993	125.995	37.0071	-159.179	126.896	17.4607	-96.985	127.347	-3.51909	-114.678	115.918	-32.4925	-123.622	140.522	1.86225	-80.1629	134.086	-18.0784	-93.2795	121.757	-36.0342	-98.0489	125.594	42.6169	-42.1746	117.898	42.5845	-15.5525	88.8931	52.6367	-38.3918	
223	1.85833	57.8413	25.6597	-35.388	41.548	16.8162	-61.8176	29.1655	9.34131	-81.1071	13.949	2.6557	-104.262	82.3064	39.1328	-106.518	78.0007	40.6607	-131.023	81.3139	41.1639	-156.975	114.03	33.1658	-109.055	121.373	28.4953	-135.576	125.736	24.5266	-160.788	127.94	8.07231	-99.0328	124.042	-13.7598	-116.345	113.592	-43.5184	-119.435	137.638	-1.46534	-76.2295	132.035	-26.1156	-93.2836	117.532	-49.4828	-92.0326	121.24	38.0634	-45.3204	116.817	39.7839	-17.4531	88.1386	47.904	-37.4739	
224	1.86667	54.5519	23.2018	-35.503	43.2814	11.2127	-62.028	28.663	3.52433	-83.3428	14.1978	-3.9063	-100.694	83.5028	33.4175	-107.971	79.7924	33.0748	-132.167	79.2393	35.2066	-158.313	113.29	28.1615	-108.058	122.756	21.5074	-135.358	125.385	17.524	-162.81	127.296	4.06693	-93.5761	125.059	-21.5059	-115.056	109.271	-48.7436	-116.177	137.597	-9.52563	-78.8696	130.914	-31.2424	-92.4648	116.97	-52.5854	-91.6849	123.585	30.3329	-47.9544	117.003	31.2937	-17.4661	90.2365	42.4025	-37.9822	
225	1.875	54.073	19.7388	-35.9292	39.9381	7.64931	-57.6801	26.7549	0.252078	-83.404	14.1864	-7.80552	-100.018	85.4099	30.5133	-106.264	76.8498	31.0845	-132.369	81.3786	30.2751	-155.122	114.036	22.5798	-107.567	117.363	18.4692	-134.44	124.145	13.0417	-160.146	127.19	-2.11262	-96.8013	121.277	-22.4095	-113.545	113.215	-52.9685	-113.676	134.962	-13.3827	-80.2203	132.73	-38.3665	-87.6571	111.624	-59.4049	-89.6379	119.504	26.127	-47.8909	118.666	26.9771	-15.5926	88.2385	39.5589	-36.0002	
226	1.88333	56.5959	16.6541	-30.1675	38.567	5.93062	-59.4991	25.4318	-1.88598	-79.6787	12.6336	-9.33832	-99.5587	82.2729	28.6958	-101.58	81.681	27.8933	-129.291	82.2463	28.2102	-151.445	117.196	19.2469	-106.448	117.682	16.2834	-133.202	125.637	9.05381	-159.605	125.26	-4.14905	-96.1054	123.224	-24.609	-110.825	110.433	-52.2551	-113.365	135.788	-15.2296	-74.3765	129.38	-37.8652	-87.7789	113.911	-59.3652	-89.3607	124.766	24.5856	-45.2243	115.244	25.5226	-12.4148	88.2177	35.3072	-35.5657	
227	1.89167	57.8454	13.3192	-28.5847	39.0403	2.08506	-54.911	28.9653	-6.24838	-80.3352	18.4378	-13.4375	-95.3163	86.7253	25.296	-104.126	81.6004	24.7955	-130.511	81.9572	24.5885	-151.717	117.682	16.9645	-103.768	118.388	13.1096	-129.928	125.321	5.99595	-156.722	125.548	-6.49048	-93.7699	122.125	-27.5897	-110.899	111.164	-59.3354	-111.487	136.092	-18.925	-74.852	128.921	-42.7414	-87.0584	113.441	-63.494	-84.6719	123.617	21.2049	-42.2068	116.444	23.1435	-9.46527	91.6702	32.4186	-30.2481	
228	1.9	53.9162	12.0181	-32.2427	39.4487	0.775143	-52.8798	31.0345	-8.15442	-79.856	18.0275	-15.6952	-97.2919	87.1118	22.0358	-99.9923	82.5631	22.3487	-124.109	79.5829	23.0678	-152.612	117.432	14.2539	-98.5113	119.495	9.64612	-126.416	123.045	4.07066	-156.963	124.374	-6.2826	-88.7018	124.649	-32.7653	-108.399	110.687	-61.0375	-111.336	139.357	-21.8744	-70.0634	133.685	-41.1873	-83.9675	114.29	-63.2355	-88.1738	122.202	20.4564	-38.1545	116.104	21.4805	-9.27929	88.3198	32.1703	-33.7974	
229	1.90833	54.723	9.26233	-28.3413	42.0244	-2.6106	-50.4345	29.4914	-10.0342	-77.4832	19.421	-18.58	-93.2824	86.4033	21.2977	-99.5478	82.7733	20.1457	-123.826	83.5999	18.8901	-152.909	112.73	14.0158	-98.7617	120.926	7.1428	-128.884	123.493	-0.414817	-157.326	124.957	-9.37106	-92.22	123.781	-34.085	-108.477	114.913	-59.6142	-110.165	139.457	-24.8418	-73.268	129.713	-44.1374	-86.1738	114.746	-66.2594	-86.4436	125.056	16.6827	-40.8075	116.113	19.5287	-6.44648	88.5748	30.2679	-31.1156	
230	1.91667	60.6175	5.41509	-29.2954	44.9879	-6.62212	-53.5405	31.7599	-14.7175	-76.0893	22.8458	-22.5677	-97.7486	85.6884	18.8507	-98.4606	84.341	15.8406	-122.08	81.0495	15.2842	-147.827	117.254	10.5911	-97.2497	119.514	5.44728	-127.862	122.498	-2.25734	-153.095	124.772	-10.4339	-88.7292	125.397	-37.0416	-107.264	112.536	-64.515	-109.941	138.915	-26.1582	-73.115	133.36	-48.6567	-83.9149	119.805	-66.3121	-84.4925	126.05	14.3202	-35.6801	120.857	16.1435	-4.85705	88.7926	25.6389	-29.1346	
231	1.925	58.7706	2.30138	-27.3082	44.4263	-9.29525	-53.0795	30.8059	-16.9034	-74.913	25.3851	-25.9417	-96.0726	87.1183	15.1454	-97.5881	84.3858	13.0575	-126.539	87.2098	10.6905	-149.99	121.408	5.02614	-96.851	124.532	-0.0230568	-126.678	130.204	-7.68864	-150.948	128.339	-15.2532	-87.347	129.188	-37.05	-105.2	121.709	-66.4907	-108.093	145.029	-30.139	-67.9919	137.034	-53.9948	-81.2094	121.57	-71.2221	-85.5315	127.049	11.253	-35.9962	123.463	13.3449	-7.49397	95.3754	21.4834	-29.8348	
232	1.93333	67.2887	-4.41356	-24.1119	53.0549	-16.9046	-49.8175	38.7529	-23.8919	-77.832	27.7167	-32.5301	-95.3432	97.0847	6.76067	-99.2627	94.6909	3.58636	-124.344	95.5936	2.73177	-146.803	128.843	-3.2539	-98.0399	132.117	-8.12865	-121.395	140.582	-17.6716	-153.422	139.46	-24.9864	-85.5756	135.182	-48.1534	-104.613	125.804	-74.999	-108.314	148.775	-36.9391	-67.5319	141.831	-60.7057	-79.6795	127.896	-77.121	-79.9903	135.166	3.04334	-36.6063	128.558	5.54253	-1.35554	96.166	16.1228	-27.4828	
233	1.94167	74.3337	-13.2136	-23.8463	58.7406	-25.2266	-49.5422	46.7389	-33.8649	-76.9133	34.4664	-42.2776	-90.791	105.074	-4.90036	-94.1502	104.408	-7.14843	-123.872	105.658	-10.518	-143.359	133.72	-11.4615	-94.4749	139.805	-19.924	-119.679	147.538	-29.6974	-150.355	146.348	-33.6704	-81.7378	147.793	-56.7611	-98.3286	136.777	-87.3618	-102.94	156.78	-46.6515	-60.4615	150.256	-72.942	-74.1537	136.362	-90.8465	-72.7592	141.57	-5.0541	-29.8295	134.698	-1.17671	-4.14444	108.14	5.74842	-25.7487	
234	1.95	80.8079	-23.0576	-22.3142	68.7227	-36.5288	-50.3734	54.7853	-46.2924	-75.722	47.7786	-55.6428	-92.7145	117.34	-17.0269	-96.4752	115.896	-21.6653	-121.244	112.808	-26.2989	-145.798	144.506	-24.4417	-89.5158	148.882	-32.837	-115.37	156.854	-47.8799	-145.647	153.425	-43.9342	-78.2597	155.735	-67.9403	-94.2211	141.251	-99.6917	-97.9477	166.158	-58.7975	-56.9579	158.332	-78.5095	-69.5113	141.856	-98.5572	-68.6696	148.587	-13.4565	-30.1809	140.635	-9.75242	-1.73728	114.981	-4.12227	-26.0498	
235	1.95833	87.1	-32.5401	-25.2178	73.8177	-47.1376	-46.8468	61.8139	-58.7271	-74.4556	54.0424	-69.9169	-90.3152	120.407	-30.27	-93.2055	119.768	-37.1945	-121.056	124.928	-47.9677	-139.638	150.877	-36.7862	-88.4145	158.119	-50.4406	-115.535	162.512	-68.5305	-137.416	160.535	-55.8585	-71.6958	162.886	-81.3508	-87.3849	149.42	-110.09	-87.0916	169.408	-65.4198	-53.8164	164.814	-94.876	-62.497	147.833	-109.965	-58.2155	150.763	-21.9212	-28.1026	145.289	-18.0262	0.0297069	120.327	-11.8016	-26.2959	
236	1.96667	91.1473	-41.8338	-22.0951	78.7453	-58.4311	-42.2599	72.8965	-73.521	-70.4637	70.1629	-88.5148	-89.5206	128.496	-45.0256	-89.495	124.182	-56.6813	-116.649	123.653	-76.1423	-137.758	155.615	-51.2858	-84.9417	159.874	-66.6533	-110.073	164.106	-98.2501	-130.117	165.958	-71.1945	-70.1211	166	-96.6684	-81.4912	149.33	-122.178	-76.0183	174.083	-79.0278	-52.9809	166.666	-102.954	-58.6807	144.27	-120.406	-50.3772	160.084	-35.9043	-25.0628	148.69	-27.7584	4.98098	125.503	-23.465	-25.0623	
237	1.975	93.6481	-50.9094	-18.8327	80.2682	-70.0754	-40.7615	78.0314	-87.8185	-64.484	81.5999	-106.522	-79.9344	130.97	-59.8946	-84.5715	130.335	-77.1276	-108.746	126.767	-106.222	-124.495	158.368	-67.7121	-83.5609	161.16	-90.3886	-105.341	156.147	-124.7	-114.875	166.924	-85.9084	-66.8477	162.382	-111.655	-74.1611	146.808	-135.459	-59.3416	176.059	-91.2448	-45.9693	168.26	-119.129	-49.1738	144.649	-127.426	-37.2905	160.216	-43.5715	-25.1695	152.186	-34.7208	3.8015	128.061	-30.6971	-21.2729	
238	1.98333	96.5961	-57.6285	-9.94326	85.8412	-80.1684	-33.4199	79.0193	-100.987	-56.4418	86.5267	-121.589	-68.4834	131.782	-75.1447	-80.1909	123.611	-94.4749	-102.359	118.578	-124.967	-105.628	156.636	-82.2448	-77.2509	157.336	-112.669	-95.8024	145.113	-142.373	-94.2126	164.836	-97.4661	-60.2201	159.857	-126.878	-63.6965	136.756	-143.404	-40.2865	176.674	-104.663	-39.328	164.905	-127.283	-43.1236	140.37	-135.581	-27.0764	161.629	-52.9242	-20.3354	157.595	-44.8941	9.70765	130.419	-39.7164	-20.2072	
239	1.99167	96.3057	-63.6379	-8.39484	86.0676	-84.6847	-25.4156	80.2653	-108.197	-45.7069	92.8571	-131.962	-58.8307	124.581	-83.1598	-74.7906	119.787	-107.736	-93.5504	108.947	-137.707	-88.4317	152.578	-94.3549	-71.5974	150.628	-123.512	-86.061	128.285	-153.536	-72.9815	161.787	-110.929	-55.1291	150.637	-139.049	-52.8322	129.756	-146.117	-26.5092	173.317	-112.337	-32.5293	158.76	-135.242	-35.4025	136.144	-137.688	-11.7112	161.377	-64.8694	-19.893	157.672	-51.0763	8.25849	132.011	-46.595	-13.6039	
